# AST/ASF file generated using VICON BodyLanguage
# -----------------------------------------------
:version 1.10
:name VICON
:units
  mass 1.0
  length 0.45
  angle deg
:documentation
   .ast/.asf automatically generated from VICON data using
   VICON BodyBuilder and BodyLanguage model FoxedUp or BRILLIANT.MOD
:root
   order TX TY TZ RX RY RZ
   axis XYZ
   position 0 0 0  
   orientation 0 -0 0 
:bonedata
  begin
     id 1 
     name lhipjoint
     direction 0.500677 -0.737119 0.453848 
     length 2.34727 
     axis 0 -0 0  XYZ
  end
  begin
     id 2 
     name lfemur
     direction 0.34202 -0.939693 0  
     length 7.53653  
     axis 0 -0 20  XYZ
    dof rx ry rz
    limits (-160.0 20.0)
           (-70.0 70.0)
           (-60.0 70.0)
  end
  begin
     id 3 
     name ltibia
     direction 0.34202 -0.939693 0   
     length 6.85572   
     axis 0 -0 20   XYZ
    dof rx
    limits (-10.0 170.0)
  end
  begin
     id 4 
     name lfoot
     direction 0.155313 -0.426718 0.890949   
     length 2.18324   
     axis -90 -1.13533e-015 20   XYZ
    dof rx rz
    limits (-45.0 90.0)
           (-70.0 20.0)
  end
  begin
     id 5 
     name ltoes
     direction 1.53474e-011 -4.21647e-011 1   
     length 1.06748   
     axis -90 -1.13533e-015 20   XYZ
    dof rx
    limits (-90.0 20.0)
  end
  begin
     id 6 
     name rhipjoint
     direction -0.632471 -0.659587 0.406111   
     length 2.62319  
     axis 0 -0 0  XYZ 
  end
  begin
     id 7 
     name rfemur
     direction -0.34202 -0.939693 0   
     length 7.21735   
     axis 0 -0 -20   XYZ
    dof rx ry rz
    limits (-160.0 20.0)
           (-70.0 70.0)
           (-70.0 60.0)
  end
  begin
     id 8 
     name rtibia
     direction -0.34202 -0.939693 0   
     length 7.02558   
     axis 0 -0 -20   XYZ
    dof rx
    limits (-10.0 170.0)
 end
 begin
     id 9 
     name rfoot
     direction -0.16057 -0.441164 0.882945   
     length 2.10014  
     axis -90 1.13533e-015 -20   XYZ
    dof rx rz
    limits (-45.0 90.0)
           (-20.0 70.0)
  end
  begin
     id 10 
     name rtoes
     direction -1.53553e-011 -4.2192e-011 1   
     length 1.02554   
     axis -90 1.13533e-015 -20   XYZ
    dof rx
    limits (-90.0 20.0)
  end
  begin
     id 11 
     name lowerback
     direction 0.0401429 0.998861 -0.0258085   
     length 1.80848   
     axis 0 -0 0   XYZ
    dof rx ry rz
    limits (-20.0 45.0)
           (-30.0 30.0)
           (-30.0 30.0)
  end
  begin
     id 12 
     name upperback
     direction -0.0130978 0.999914 -0.000352645   
     length 1.8116   
     axis 0 -0 0   XYZ
    dof rx ry rz
    limits (-20.0 45.0)
           (-30.0 30.0)
           (-30.0 30.0)
  end
  begin
     id 13 
     name thorax
     direction -0.0300198 0.999453 0.0138573   
     length 1.81778   
     axis 0 -0 0   XYZ
    dof rx ry rz
    limits (-20.0 45.0)
           (-30.0 30.0)
           (-30.0 30.0)
  end
  begin
     id 14 
     name lowerneck
     direction -0.0401726 0.999191 -0.00173647   
     length 2.10594   
     axis 0 -0 0   XYZ
    dof rx ry rz
    limits (-20.0 45.0)
           (-30.0 30.0)
           (-30.0 30.0)
  end
  begin
     id 15 
     name upperneck
     direction 0.0119835 0.998501 0.0534085   
     length 2.07325   
     axis 0 -0 0   XYZ
    dof rx ry rz
    limits (-20.0 45.0)
           (-30.0 30.0)
           (-30.0 30.0)
  end
  begin
     id 16
     name head
     direction 0.00628309 0.999826 0.0175921  
     length 2.15096  
     axis 0 -0 0   XYZ
    dof rx ry rz
    limits (-20.0 45.0)
           (-30.0 30.0)
           (-30.0 30.0)
  end
  begin
     id 17 
     name lclavicle
     direction 0.895501 0.429681 -0.115981  
     length 4.18092  
     axis 0 -0 0   XYZ
    dof ry rz
    limits (-20.0 10.0)
           (0.0 20.0)
  end
  begin
     id 18 
     name lhumerus
     direction 1 -4.48961e-011 -3.38433e-028   
     length 5.77237   
     axis 180 -30 -90   XYZ
    dof rx ry rz
    limits (-60.0 90.0)
           (-90.0 90.0)
           (-90.0 90.0)
  end
  begin
     id 19
     name lradius
     direction 1 -4.4901e-011 1.11983e-026   
     length 2.91878   
     axis 180 -30 -90   XYZ
    dof rx
    limits (-10.0 170.0)
  end
  begin
     id 20
     name lwrist
     direction 1 -4.48934e-011 1.88176e-026   
     length 1.45939   
     axis -1.23311e-014 90 90   XYZ
    dof ry
    limits (-180.0 0.0)
 end
  begin
     id 21 
     name lhand
     direction 1 -4.4895e-011 3.76352e-026   
     length 1.06566   
     axis -2.40147e-014 90 90   XYZ
    dof rx rz
    limits (-90.0 90.0)
           (-45.0 45.0)
  end
  begin
     id 22 
     name lfingers
     direction 1 -4.49005e-011 7.52705e-026   
     length 0.859162   
     axis -4.80295e-014 90 90   XYZ
    dof rx
    limits (0.0 90.0)
  end
  begin
     id 23
     name lthumb
     direction 0.707107 -6.34885e-011 0.707107   
     length 1.23359   
     axis -90 45 -9.86935e-015   XYZ
    dof rx rz
    limits (-45.0 45.0)
           (-45.0 45.0)
  end
  begin
     id 24 
     name rclavicle
     direction -0.91006 0.40451 -0.0903492   
     length 4.23293  
     axis 0 -0 0   XYZ 
    dof ry rz
    limits (-10.0 20.0)
           (-20.0 0.0)
  end
  begin
     id 25 
     name rhumerus
     direction -1 -4.4897e-011 1.7415e-027  
     length 5.49854   
     axis 180 30 90   XYZ
    dof rx ry rz
    limits (-90.0 60.0)
           (-90.0 90.0)
           (-90.0 90.0)
  end
  begin
     id 26 
     name rradius
     direction -1 -4.48963e-011 1.21259e-026   
     length 3.1186   
     axis 180 30 90   XYZ
    dof rx
    limits (-10.0 170.0)
  end
  begin
     id 27 
     name rwrist
     direction -1 -4.48967e-011 1.88176e-026   
     length 1.5593   
     axis -1.23311e-014 -90 -90   XYZ
    dof ry
    limits (-180.0 0.0)
  end
  begin
     id 28
     name rhand
     direction -1 -4.4895e-011 3.76352e-026   
     length 0.71207   
     axis -2.40147e-014 -90 -90   XYZ
    dof rx rz
    limits (-90.0 90.0)
           (-45.0 45.0)
  end
  begin
     id 29
     name rfingers
     direction -1 -4.49005e-011 7.52705e-026   
     length 0.574089   
     axis -4.80295e-014 -90 -90   XYZ
    dof rx
    limits (0.0 90.0)
  end
  begin
     id 30
     name rthumb
     direction -0.707107 -6.34982e-011 0.707107   
     length 0.824281   
     axis -90 -45 9.86935e-015   XYZ
    dof rx rz
    limits (-45.0 45.0)
           (-45.0 45.0)
  end
:hierarchy
  begin
    root lhipjoint rhipjoint lowerback
    lhipjoint lfemur
    lfemur ltibia
    ltibia lfoot
    lfoot ltoes
    rhipjoint rfemur
    rfemur rtibia
    rtibia rfoot
    rfoot rtoes
    lowerback upperback
    upperback thorax
    thorax lowerneck lclavicle rclavicle
    lowerneck upperneck
    upperneck head
    lclavicle lhumerus
    lhumerus lradius
    lradius lwrist
    lwrist lhand lthumb
    lhand lfingers
    rclavicle rhumerus
    rhumerus rradius
    rradius rwrist
    rwrist rhand rthumb
    rhand rfingers
  end

#!OML:ASF C:\ViconDB\ViconDB\414\Spring2016\042216\male.ASF
:FULLY-SPECIFIED
:DEGREES
1
root -27.5484 17.2436 11.6393 -179.235 83.8377 179.831
lowerback -1.85869 -1.51734 4.77718
upperback -0.948873 -2.09128 -0.823091
thorax -0.136361 -1.06563 -3.55712
lowerneck -2.22477 7.96121 -0.0374718
upperneck -0.777924 10.7074 -6.02867
head 0.475262 5.35458 -1.71794
rclavicle -3.88562e-015 -7.20594e-015
rhumerus -30.1314 -4.81128 -93.6138
rradius 25.4638
rwrist 34.0811
rhand 12.9015 -20.2094
rfingers 7.12502
rthumb 37.8728 -46.0431
lclavicle -3.88562e-015 -7.20594e-015
lhumerus -36.143 14.0034 87.3355
lradius 31.7986
lwrist -14.6644
lhand -10.1838 15.8385
lfingers 7.12502
lthumb 15.8066 45.2132
rfemur 2.56555 15.6538 22.0111
rtibia 20.6872
rfoot -25.1606 -19.3414
rtoes -9.26703
lfemur -7.06723 -2.2004 -21.3067
ltibia 26.2091
lfoot -24.2825 14.2715
ltoes -10.8833
2
root -27.5489 17.2416 11.6323 -179.505 83.8285 179.565
lowerback -1.84924 -1.52139 4.73362
upperback -0.950679 -2.0955 -0.843579
thorax -0.143072 -1.06786 -3.5535
lowerneck -2.13695 7.94579 0.0237339
upperneck -0.848865 10.6803 -6.05594
head 0.442834 5.3437 -1.74261
rclavicle -1.0913e-014 8.99501e-015
rhumerus -30.1411 -4.56489 -93.7241
rradius 25.6034
rwrist 33.8777
rhand 13.0055 -20.3668
rfingers 7.12502
rthumb 37.9711 -46.1739
lclavicle -1.0913e-014 8.99501e-015
lhumerus -36.1238 14.0873 87.2195
lradius 31.784
lwrist -14.3456
lhand -9.91575 15.7282
lfingers 7.12502
lthumb 16.0648 45.0823
rfemur 2.5457 15.6661 21.961
rtibia 20.7655
rfoot -25.2028 -19.357
rtoes -9.436
lfemur -7.01522 -2.26218 -21.3737
ltibia 26.142
lfoot -24.2354 14.3671
ltoes -11.04
3
root -27.5501 17.2401 11.6246 -179.717 83.8164 179.351
lowerback -1.83608 -1.51517 4.70378
upperback -0.951956 -2.0861 -0.856585
thorax -0.150228 -1.0633 -3.54963
lowerneck -2.1215 7.95691 0.0449172
upperneck -0.911614 10.6936 -6.14549
head 0.427851 5.3522 -1.77599
rclavicle -2.18042e-015 -2.83268e-015
rhumerus -29.9971 -4.89775 -93.6787
rradius 25.5541
rwrist 33.9967
rhand 12.9387 -20.2887
rfingers 7.12502
rthumb 37.908 -46.113
lclavicle -2.18042e-015 -2.83268e-015
lhumerus -36.1433 14.2756 87.0827
lradius 31.7203
lwrist -14.4627
lhand -10.0079 15.9013
lfingers 7.12502
lthumb 15.976 45.2625
rfemur 2.51501 15.6151 21.8986
rtibia 20.8166
rfoot -25.1987 -19.3337
rtoes -9.38197
lfemur -6.99267 -2.2942 -21.4322
ltibia 26.0965
lfoot -24.2247 14.3672
ltoes -10.9599
4
root -27.551 17.2403 11.6189 -179.693 83.8318 179.373
lowerback -1.83425 -1.52039 4.65852
upperback -0.951177 -2.09228 -0.835083
thorax -0.148524 -1.06605 -3.50202
lowerneck -2.33935 7.99308 -0.125275
upperneck -0.644097 10.7591 -5.93583
head 0.526867 5.37583 -1.66539
rclavicle -2.29985e-014 -4.67144e-015
rhumerus -29.9662 -4.78072 -93.6487
rradius 25.5851
rwrist 33.7468
rhand 13.083 -19.8649
rfingers 7.12502
rthumb 38.0442 -45.6521
lclavicle -2.29985e-014 -4.67144e-015
lhumerus -36.1541 14.3978 86.997
lradius 31.7261
lwrist -14.6205
lhand -9.95108 15.628
lfingers 7.12502
lthumb 16.0308 44.9848
rfemur 2.48739 15.6188 21.8702
rtibia 20.8556
rfoot -25.0257 -19.3357
rtoes -9.77291
lfemur -6.97446 -2.26483 -21.4424
ltibia 26.0591
lfoot -24.2411 14.3131
ltoes -10.8677
5
root -27.551 17.2415 11.613 -179.49 83.8569 179.549
lowerback -1.85595 -1.50231 4.69003
upperback -0.960783 -2.06942 -0.87466
thorax -0.146753 -1.05501 -3.56086
lowerneck -2.3218 8.05018 -0.276725
upperneck -0.715818 10.8276 -5.63734
head 0.476239 5.41211 -1.54996
rclavicle 5.46347e-015 -4.57205e-015
rhumerus -29.9383 -4.77271 -93.7503
rradius 25.6142
rwrist 33.6975
rhand 13.1536 -20.4335
rfingers 7.12502
rthumb 38.1109 -46.2025
lclavicle 5.46347e-015 -4.57205e-015
lhumerus -36.1541 14.3109 86.9026
lradius 31.6919
lwrist -14.667
lhand -10.0249 15.6759
lfingers 7.12502
lthumb 15.9597 45.0384
rfemur 2.44381 15.6478 21.859
rtibia 20.8685
rfoot -25.2311 -19.2786
rtoes -9.20267
lfemur -6.99482 -2.324 -21.4425
ltibia 26.0458
lfoot -24.2347 14.3693
ltoes -10.8175
6
root -27.5501 17.2426 11.6087 -179.411 83.9025 179.631
lowerback -1.89053 -1.46899 4.67153
upperback -0.945529 -2.02675 -0.919819
thorax -0.108557 -1.03254 -3.59802
lowerneck -2.30108 8.04363 -0.098182
upperneck -0.722936 10.8141 -5.71217
head 0.485127 5.40487 -1.60306
rclavicle 3.58325e-014 -3.08116e-015
rhumerus -29.8964 -4.77875 -93.8657
rradius 25.6457
rwrist 33.4326
rhand 13.1716 -20.6189
rfingers 7.12502
rthumb 38.1279 -46.3832
lclavicle 3.58325e-014 -3.08116e-015
lhumerus -36.1003 14.1834 86.8101
lradius 31.6191
lwrist -14.7036
lhand -10.1207 15.7781
lfingers 7.12502
lthumb 15.8674 45.148
rfemur 2.43557 15.6499 21.844
rtibia 20.8925
rfoot -25.2362 -19.2364
rtoes -9.30381
lfemur -6.95873 -2.35699 -21.4365
ltibia 26.0231
lfoot -24.3128 14.3098
ltoes -10.5327
7
root -27.553 17.247 11.6023 -179.632 83.9309 179.339
lowerback -1.94275 -1.47758 4.61359
upperback -0.968433 -2.03899 -0.913917
thorax -0.101728 -1.03853 -3.56065
lowerneck -2.07671 8.06591 -0.0821751
upperneck -0.983035 10.8306 -5.86314
head 0.377728 5.4226 -1.66899
rclavicle 2.01269e-014 8.29926e-015
rhumerus -29.8831 -4.27843 -94.0121
rradius 25.7344
rwrist 32.9165
rhand 13.0877 -20.728
rfingers 7.12502
rthumb 38.0487 -46.5139
lclavicle 2.01269e-014 8.29926e-015
lhumerus -36.0779 14.2886 86.7279
lradius 31.6269
lwrist -14.3286
lhand -10.0765 15.794
lfingers 7.12502
lthumb 15.9099 45.1605
rfemur 2.32268 15.611 21.7448
rtibia 20.902
rfoot -24.9984 -19.244
rtoes -9.85098
lfemur -7.05895 -2.30412 -21.4857
ltibia 26.0147
lfoot -24.2544 14.2403
ltoes -10.3703
8
root -27.5547 17.2467 11.5969 -179.761 83.9474 179.201
lowerback -1.9326 -1.46273 4.5603
upperback -0.985304 -2.01734 -0.929988
thorax -0.121372 -1.02829 -3.54643
lowerneck -2.03449 8.08633 -0.0370523
upperneck -0.994426 10.8549 -5.853
head 0.36986 5.43524 -1.67491
rclavicle 1.03663e-015 -5.01931e-015
rhumerus -29.8698 -4.20847 -94.0671
rradius 25.7783
rwrist 32.709
rhand 13.0207 -20.6159
rfingers 7.12502
rthumb 37.9854 -46.4191
lclavicle 1.03663e-015 -5.01931e-015
lhumerus -36.1032 14.2969 86.6472
lradius 31.5819
lwrist -14.5806
lhand -10.0583 15.7431
lfingers 7.12502
lthumb 15.9275 45.1082
rfemur 2.28807 15.6019 21.6925
rtibia 20.9271
rfoot -24.9765 -19.2005
rtoes -9.8654
lfemur -7.04678 -2.41452 -21.5273
ltibia 25.9943
lfoot -24.2917 14.3188
ltoes -10.3815
9
root -27.5562 17.2427 11.5901 -179.328 83.9768 179.695
lowerback -1.90261 -1.45384 4.56556
upperback -0.960336 -2.00495 -0.892368
thorax -0.110091 -1.02133 -3.50996
lowerneck -2.2885 8.14186 -0.178995
upperneck -0.680449 10.9489 -5.67669
head 0.493242 5.47178 -1.57604
rclavicle 2.35482e-014 -7.45443e-016
rhumerus -29.8436 -4.04601 -94.0759
rradius 25.8545
rwrist 32.5399
rhand 12.9964 -20.8627
rfingers 7.12502
rthumb 37.9625 -46.6722
lclavicle 2.35482e-014 -7.45443e-016
lhumerus -36.0684 14.3111 86.6713
lradius 31.6028
lwrist -14.4032
lhand -9.97364 15.8738
lfingers 7.12502
lthumb 16.009 45.2323
rfemur 2.328 15.4865 21.7087
rtibia 20.9525
rfoot -25.118 -19.0271
rtoes -9.48676
lfemur -6.9839 -2.28909 -21.5029
ltibia 25.9801
lfoot -24.2149 14.3348
ltoes -10.6216
10
root -27.559 17.242 11.583 -178.864 83.9942 180.189
lowerback -1.87471 -1.44712 4.5806
upperback -0.951066 -1.99523 -0.859049
thorax -0.114579 -1.01639 -3.48325
lowerneck -2.23072 8.12952 -0.147142
upperneck -0.719269 10.9312 -5.77264
head 0.478956 5.4647 -1.61477
rclavicle 4.2397e-016 1.70955e-014
rhumerus -29.842 -4.027 -94.0691
rradius 25.9579
rwrist 32.6594
rhand 13.0873 -20.9567
rfingers 7.12502
rthumb 38.0483 -46.7428
lclavicle 4.2397e-016 1.70955e-014
lhumerus -36.0296 14.3709 86.6393
lradius 31.5011
lwrist -14.4041
lhand -9.97138 15.7394
lfingers 7.12502
lthumb 16.0112 45.0977
rfemur 2.32653 15.4017 21.725
rtibia 20.9816
rfoot -25.1243 -18.9289
rtoes -9.40072
lfemur -6.92672 -2.32697 -21.4676
ltibia 25.9628
lfoot -24.3038 14.3069
ltoes -10.443
11
root -27.5622 17.2432 11.5781 -178.464 84.0056 180.557
lowerback -1.88882 -1.4653 4.54469
upperback -0.964538 -2.01914 -0.798561
thorax -0.119257 -1.02825 -3.40109
lowerneck -2.21722 8.14782 -0.159966
upperneck -0.688678 10.9601 -5.86406
head 0.492127 5.47898 -1.64027
rclavicle 1.33714e-015 -5.91384e-015
rhumerus -29.745 -4.26733 -93.9321
rradius 25.792
rwrist 33.0948
rhand 13.0944 -20.5742
rfingers 7.12502
rthumb 38.055 -46.3584
lclavicle 1.33714e-015 -5.91384e-015
lhumerus -36.0077 14.4534 86.6446
lradius 31.4221
lwrist -14.5478
lhand -9.96527 15.7623
lfingers 7.12502
lthumb 16.0171 45.1202
rfemur 2.25281 15.3012 21.7168
rtibia 20.9952
rfoot -25.0245 -18.8556
rtoes -9.47909
lfemur -6.97202 -2.25096 -21.4242
ltibia 25.96
lfoot -24.3132 14.216
ltoes -10.439
12
root -27.5673 17.2457 11.5747 -178.164 83.9655 180.811
lowerback -1.86767 -1.50391 4.48486
upperback -1.00701 -2.06743 -0.749588
thorax -0.17522 -1.0539 -3.31603
lowerneck -2.202 8.12426 -0.00875061
upperneck -0.576876 10.9371 -6.11864
head 0.548767 5.46489 -1.74195
rclavicle 1.92371e-014 -1.37161e-014
rhumerus -29.7182 -4.26192 -93.9085
rradius 25.742
rwrist 33.1839
rhand 13.1519 -20.1546
rfingers 7.12502
rthumb 38.1093 -45.924
lclavicle 1.92371e-014 -1.37161e-014
lhumerus -36.0188 14.6106 86.5764
lradius 31.3357
lwrist -14.7747
lhand -9.87241 15.7818
lfingers 7.12502
lthumb 16.1065 45.1325
rfemur 2.19651 15.304 21.7326
rtibia 20.9799
rfoot -24.9977 -18.9093
rtoes -9.59885
lfemur -7.07843 -1.9157 -21.3559
ltibia 25.9807
lfoot -24.2987 13.812
ltoes -10.4154
13
root -27.5687 17.248 11.5697 -178.897 83.9861 180.095
lowerback -1.81166 -1.50902 4.35865
upperback -1.03536 -2.06908 -0.787616
thorax -0.232664 -1.05611 -3.28211
lowerneck -2.16157 8.20272 -0.106766
upperneck -0.566665 11.0366 -5.85392
head 0.525645 5.51485 -1.64362
rclavicle 1.56512e-014 -5.96354e-016
rhumerus -29.7467 -4.03665 -94.0795
rradius 25.7469
rwrist 32.8004
rhand 13.075 -20.5768
rfingers 7.12502
rthumb 38.0367 -46.366
lclavicle 1.56512e-014 -5.96354e-016
lhumerus -36.0793 14.8699 86.3576
lradius 31.1252
lwrist -15.3499
lhand -9.95524 15.5744
lfingers 7.12502
lthumb 16.0268 44.9315
rfemur 2.18493 15.0246 21.5639
rtibia 20.9655
rfoot -24.7092 -18.7053
rtoes -10.1612
lfemur -7.07512 -1.95101 -21.4543
ltibia 26.0004
lfoot -24.3171 13.8085
ltoes -10.2134
14
root -27.5706 17.2487 11.5659 -177.503 84.0586 181.456
lowerback -1.89954 -1.46898 4.52428
upperback -1.02569 -2.02239 -0.787126
thorax -0.175324 -1.03196 -3.37706
lowerneck -2.17085 8.24039 -0.22106
upperneck -0.559551 11.0846 -5.64585
head 0.510779 5.53869 -1.55953
rclavicle -9.27299e-015 -1.09332e-015
rhumerus -29.7019 -4.02908 -94.1238
rradius 25.7549
rwrist 32.9402
rhand 13.2823 -20.3479
rfingers 7.12502
rthumb 38.2324 -46.0835
lclavicle -9.27299e-015 -1.09332e-015
lhumerus -36.0356 14.7747 86.3514
lradius 31.1172
lwrist -15.5422
lhand -9.90954 15.5706
lfingers 7.12502
lthumb 16.0708 44.9241
rfemur 2.14201 15.2731 21.7317
rtibia 20.9691
rfoot -24.7382 -18.8715
rtoes -10.2208
lfemur -7.1179 -1.95709 -21.3149
ltibia 26.0026
lfoot -24.3218 13.8604
ltoes -10.179
15
root -27.5728 17.2463 11.5612 -177.444 84.0968 181.565
lowerback -1.88321 -1.4584 4.55341
upperback -1.00856 -2.00853 -0.816004
thorax -0.167692 -1.02488 -3.4229
lowerneck -2.24086 8.25086 -0.117741
upperneck -0.414203 11.1055 -5.70247
head 0.578049 5.54434 -1.58611
rclavicle 1.08268e-014 -6.60959e-015
rhumerus -29.678 -3.81201 -94.2593
rradius 25.7818
rwrist 32.645
rhand 13.2446 -20.2467
rfingers 7.12502
rthumb 38.1968 -45.9921
lclavicle 1.08268e-014 -6.60959e-015
lhumerus -36.0129 14.7712 86.3026
lradius 31.08
lwrist -15.5523
lhand -10.0669 15.6864
lfingers 7.12502
lthumb 15.9192 45.0521
rfemur 2.18634 15.257 21.733
rtibia 20.9701
rfoot -24.6822 -18.8859
rtoes -10.3172
lfemur -7.05831 -1.93493 -21.3313
ltibia 26.0033
lfoot -24.3349 13.9158
ltoes -10.2978
